# xmcd
#
# Track frame offsets: 
#        150
#        11088
#        22952
#        37478
#        48769
#        65173
#        76117
#        93362
#        107755
#        118778
#        131400
#        141132
#        154311
#        176609
#        195875
#        209037
#
# Disc length: 2951 seconds
#
# Revision: 1
# Processed by: cddbd v1.5.2PL0 Copyright (c) Steve Scherf et al.
# Submitted via: ExactAudioCopy v1.0b3
#
DISCID=dd0b8510
DTITLE=Various Artist - Hail, Britannia - The British Invasion 1964-1969
DYEAR=2007
DGENRE=Oldies
TTITLE0=The Kinks - Something Better Beginning
TTITLE1=Marianne Faithfull - As Tears Go By
TTITLE2=The Moody Blues - Go Now
TTITLE3=The Animals - Don't Let Me Be Misunderstood
TTITLE4=Bee Gees - Every Christian Lion Hearted Man Will Show You
TTITLE5=The Zombies - She's Not There
TTITLE6=The Who - Substitute
TTITLE7=Fleetwood Mac - Albatross
TTITLE8=Gerry and the Pacemakers - Ferry Cross the Mersey
TTITLE9=Billy J. Kramer and The Dakotas - Little Children
TTITLE10=The Troggs - With a Girl Like You
TTITLE11=Dusty SpringField - Wishin' and Hopin'
TTITLE12=Donovan - Season of the Witch
TTITLE13=Traffic - Heaven Is in Your Mind
TTITLE14=John Mayall and The Bluesbreakers - The Supernatural
TTITLE15=Lulu - To Sir with Love
EXTD=
EXTT0=
EXTT1=
EXTT2=
EXTT3=
EXTT4=
EXTT5=
EXTT6=
EXTT7=
EXTT8=
EXTT9=
EXTT10=
EXTT11=
EXTT12=
EXTT13=
EXTT14=
EXTT15=
PLAYORDER=
